<?xml version="1.0" encoding="utf-8"?>
<!-- Generator: Adobe Illustrator 23.0.1, SVG Export Plug-In . SVG Version: 6.00 Build 0)  -->
<svg version="1.1" id="Layer_1" xmlns="http://www.w3.org/2000/svg" xmlns:xlink="http://www.w3.org/1999/xlink" x="0px" y="0px"
	 viewBox="0 0 500 500" style="enable-background:new 0 0 500 500;" xml:space="preserve">
<style type="text/css">
	.st0{fill-rule:evenodd;clip-rule:evenodd;fill:#808080;}
	.st1{fill-rule:evenodd;clip-rule:evenodd;fill:#FF7B18;}
	.st2{fill-rule:evenodd;clip-rule:evenodd;fill:#FF0018;}
</style>
<g id="layer1" transform="translate(0,-52.362122)">
	<g id="g4193">
		<g id="g5398" transform="matrix(2.6933458,0,0,2.6933458,-18.427188,-1803.5397)">
			<path id="polygon9" class="st0" d="M36.24,838.27l-8.94,23.95l6.45,0l5-12.87l3.31,12.87h7.57l-3.5-13.24l11.84-10.71h-7.74
				l-10.99,9.96l3.55-9.95L36.24,838.27z"/>
			<path id="path11" class="st0" d="M76.02,842.33c-0.23-0.64-0.56-1.24-0.98-1.78c-0.42-0.54-0.92-1.01-1.49-1.39
				c-0.56-0.38-1.19-0.67-1.91-0.9c-1.46-0.46-3.18-0.67-4.8-0.64c-0.82,0.02-1.64,0.1-2.61,0.28c-0.97,0.18-2.09,0.48-3.14,0.93
				c-1.05,0.45-2.03,1.07-2.89,1.82c-0.86,0.75-1.61,1.62-2.16,2.39c-0.55,0.76-0.9,1.41-1.24,2.06c-0.34,0.65-0.66,1.31-0.96,1.99
				c-0.57,1.33-1.1,2.62-1.51,3.86c-0.2,0.62-0.35,1.25-0.46,1.89c-0.11,0.64-0.18,1.29-0.21,1.77c-0.03,0.49-0.03,0.81-0.01,1.13
				c0.02,0.32,0.05,0.64,0.09,0.97c0.04,0.32,0.09,0.64,0.27,1.16c0.18,0.52,0.49,1.23,0.92,1.86c0.43,0.63,0.99,1.18,1.63,1.61
				c0.64,0.43,1.35,0.75,2.17,0.98c1.65,0.46,3.59,0.59,5.41,0.49c0.92-0.06,1.84-0.18,2.84-0.44c1-0.26,2.09-0.65,3.1-1.2
				c1-0.55,1.92-1.26,2.7-2.09c0.78-0.83,1.43-1.78,2-2.82c0.57-1.04,1.06-2.18,1.52-3.32c0.46-1.14,0.9-2.29,1.21-3.15
				c0.31-0.85,0.48-1.41,0.61-1.98c0.13-0.57,0.22-1.15,0.27-1.73C76.5,844.93,76.46,843.62,76.02,842.33L76.02,842.33L76.02,842.33
				L76.02,842.33L76.02,842.33z M69.7,845.89c-0.35,1.3-0.7,2.61-1.12,3.89c-0.42,1.28-0.92,2.53-1.42,3.79
				c-0.36,0.86-0.86,1.74-1.51,2.55c-0.43,0.54-0.87,0.91-1.36,1.18c-0.56,0.32-1.14,0.49-1.71,0.56c-0.87,0.11-1.76-0.02-2.46-0.34
				c-0.38-0.18-0.77-0.44-1.09-0.79c-0.48-0.53-0.63-1.08-0.66-1.61c-0.03-0.6,0.04-1.2,0.19-1.78c0.71-2.82,1.77-5.62,3.25-8.39
				c0.2-0.4,0.46-0.77,0.77-1.1c0.31-0.33,0.66-0.61,1.05-0.84c0.79-0.45,1.6-0.66,2.27-0.7c1.01-0.05,2.09,0.04,2.96,0.77
				c0.26,0.23,0.48,0.5,0.64,0.81c0.16,0.31,0.26,0.64,0.3,0.98C69.82,845.21,69.79,845.56,69.7,845.89L69.7,845.89L69.7,845.89
				L69.7,845.89L69.7,845.89z"/>
			<path id="polygon13" class="st0" d="M82.2,838.27l-8.77,23.95h6.11l6.8-18.73l0.16,18.73h9.3l8.94-23.95h-6.09l-6.14,18.26
				l-0.67-18.26H82.2z"/>
			<path id="path15" class="st0" d="M115.26,857.46l-0.43,4.76h6.09l0.43-23.95h-8.43l-15.73,23.95h6.5l3.25-4.74L115.26,857.46z
				 M116.11,842.62l-0.68,10.02l-5.31,0.01L116.11,842.62z"/>
			<path id="polygon17" class="st0" d="M130.98,838.28l-8.95,23.94h6.1l7.04-18.77l-1.38,18.77h6.03l12.21-18.77l-7.13,18.77h5.95
				l8.99-23.94h-10.83l-9.61,16.89l2.27-16.89H130.98z"/>
			<path id="polygon19" class="st0" d="M164.05,838.28l-8.97,23.95h6.2l9.06-23.95H164.05z"/>
		</g>
		<g id="g5425" transform="matrix(2.2850091,0,0,2.2850091,-732.71664,-2182.1007)">
			<path id="path5421" class="st1" d="M480.02,991.88l-7.35,20.5c-12.27,31.69-33.94,25.39-50.51,30.55
				c-11.4,3.55-17.82,15.56-22.62,28.35l-5.87,18.27h-52l8.45-23.48c11.66-29.51,36.36-22.07,52.57-29.81
				c10.57-5.04,16.37-15.47,19.28-26.34l6.22-18.02L480.02,991.88z"/>
			<path id="path5423" class="st2" d="M376.15,1137.19l7.35-20.5c12.27-31.69,33.48-25.37,49.82-31.2
				c11.51-4.1,17.08-11.09,23.31-27.7l5.87-18.27h52.33l-8.46,23.08c-15.3,31.85-36.28,21.65-52.51,29.36
				c-9.69,4.6-17.14,17.57-20.06,28.44l-5.83,16.78H376.15z"/>
		</g>
	</g>
</g>
</svg>
